<svg xmlns="http://www.w3.org/2000/svg" width="2118" height="2123" viewBox="0 0 2118 2123" version="1.1"><path d="" stroke="none" fill="#e4342c" fill-rule="evenodd"/><path d="M 1013.500 0.633 C 950.477 3.867, 888.619 11.997, 828.499 24.949 C 805.567 29.889, 776 37.224, 776 37.973 C 776 38.290, 780.388 40.719, 785.750 43.372 C 828.438 64.491, 865.030 90.825, 899.058 124.913 C 923.127 149.026, 938.386 167.824, 957.570 197 C 1006.544 271.482, 1046.548 378.333, 1072.018 502.692 C 1090.434 592.614, 1098.415 683.807, 1097.732 796.500 C 1097.509 833.284, 1098.036 839.118, 1103.647 862 C 1121.964 936.694, 1176.265 992.689, 1248.636 1011.513 C 1270.760 1017.267, 1279.492 1018.144, 1323.500 1019.027 C 1346.050 1019.480, 1530.218 1019.887, 1732.763 1019.933 C 2064.115 1020.007, 2101.401 1019.860, 2104.763 1018.457 C 2110.646 1016.003, 2114.876 1011.236, 2116.682 1005.021 C 2122.311 985.659, 2106.853 879.750, 2086.978 801.500 C 2055.461 677.414, 2003.810 561.454, 1934.200 458.500 C 1791.758 247.829, 1577.482 96.964, 1330.500 33.456 C 1268.907 17.618, 1210.218 7.950, 1142 2.403 C 1123.620 0.909, 1032.573 -0.345, 1013.500 0.633 M 478 287.059 C 398.258 294.045, 327.584 322.048, 266.500 370.863 C 251.006 383.245, 225.517 408.197, 212.581 423.646 C 161.855 484.228, 131.693 556.641, 123.923 636.500 C 122.421 651.940, 122.421 690.060, 123.923 705.500 C 132.902 797.783, 171.517 879.659, 236.614 944.442 C 337.185 1044.527, 484.606 1080.672, 621.500 1038.808 C 710.819 1011.494, 789.703 949.338, 838.281 868 C 865.002 823.258, 882.291 772.964, 889.684 718.469 C 892.246 699.584, 892.252 643.121, 889.694 624 C 878.178 537.924, 842.251 463.166, 783.550 403.131 C 751.299 370.147, 719.903 347.113, 680 327.160 C 637.342 305.830, 598.799 294.278, 551 288.498 C 535.009 286.564, 493.080 285.738, 478 287.059 M 1537.730 311.990 C 1533.792 315.098, 1532.489 318.130, 1529.980 330.013 C 1525.051 353.362, 1509.413 401.261, 1497.870 428.365 C 1473.854 484.762, 1443.031 519.476, 1391.354 548.331 C 1362.438 564.477, 1316.301 581.673, 1289 586.481 C 1265.690 590.586, 1263.436 591.111, 1259.464 593.361 C 1253.514 596.732, 1251.500 600.181, 1251.500 607 C 1251.500 618.486, 1256.531 621.609, 1282 625.930 C 1301.608 629.257, 1309.968 631.501, 1332.159 639.397 C 1404.135 665.009, 1450.708 699.534, 1479.677 748.757 C 1486.600 760.520, 1496.299 780.784, 1502.331 796.086 C 1512.430 821.709, 1525.003 861.434, 1529.523 882 C 1532.457 895.352, 1533.624 898.444, 1536.820 901.337 C 1541.719 905.771, 1552.450 903.897, 1555.457 898.083 C 1556.331 896.393, 1558.398 889.045, 1560.051 881.755 C 1565.759 856.569, 1580.117 812.683, 1591.216 786.500 C 1606.573 750.272, 1621.611 727.388, 1645.148 704.426 C 1673.329 676.934, 1709.392 656.196, 1759.500 638.668 C 1780.523 631.315, 1788.485 629.206, 1807.317 626.003 C 1826.229 622.786, 1831.104 621.042, 1835.374 615.967 C 1837.535 613.399, 1837.999 611.842, 1837.996 607.173 C 1837.988 595.333, 1833.036 592.140, 1808.109 587.904 C 1782.999 583.638, 1759.093 576.154, 1728 562.826 C 1673.737 539.566, 1633.516 505.980, 1609.051 463.500 C 1590.550 431.377, 1571.120 378.508, 1558.530 326.032 C 1555.444 313.170, 1553.599 310.878, 1545.815 310.239 C 1541.445 309.881, 1540.008 310.192, 1537.730 311.990 M 1341.500 1103.053 C 1294.061 1103.576, 1281.679 1103.998, 1273.500 1105.371 C 1225.414 1113.442, 1188.196 1131.834, 1157.473 1162.707 C 1127.185 1193.143, 1108.069 1231.633, 1099.715 1279 C 1097.694 1290.458, 1097.528 1294.335, 1097.720 1325.500 C 1098.547 1459.404, 1086.807 1566.653, 1059.538 1674.330 C 1033.074 1778.826, 997.811 1864.994, 955.725 1928 C 912.589 1992.579, 856.691 2042.815, 791.254 2075.812 C 782.869 2080.040, 776.006 2083.797, 776.004 2084.161 C 775.993 2086.094, 846.571 2101.580, 882 2107.419 C 944.903 2117.786, 997.529 2122.047, 1062.923 2122.067 C 1134.134 2122.089, 1192.261 2116.871, 1259.500 2104.423 C 1412.444 2076.107, 1559.954 2012.849, 1684.385 1922.217 C 1784.272 1849.462, 1869.420 1760.718, 1937.899 1658 C 2014.274 1543.437, 2067.614 1415.674, 2097.433 1275.878 C 2105.035 1240.237, 2113.257 1188.226, 2116.382 1156 C 2118.062 1138.678, 2119.268 1110.247, 2118.058 1116.500 C 2117.632 1118.700, 2117.220 1119.695, 2117.142 1118.710 C 2116.666 1112.703, 2109.675 1104.837, 2103.219 1103.044 C 2099.123 1101.906, 1444.742 1101.914, 1341.500 1103.053 M 1 1128.395 C 1 1143.684, 3.129 1172.632, 6.082 1197.500 C 28.068 1382.643, 108.060 1569.512, 232.164 1725.653 C 260.398 1761.175, 280.149 1783.247, 313.951 1817.049 C 372.843 1875.940, 422.789 1915.586, 491.500 1957.983 C 541.523 1988.849, 576.240 2001.445, 624 2006.058 C 639.099 2007.517, 667.067 2006.761, 682 2004.491 C 730.473 1997.123, 774.256 1976.003, 807.355 1944.022 C 819.652 1932.141, 825.865 1924.018, 831.465 1912.500 C 836.989 1901.140, 838.360 1894.766, 837.839 1882.864 C 837.477 1874.586, 836.990 1872.516, 833.863 1865.965 C 825.054 1847.508, 808.573 1834.328, 780.780 1823.513 C 774.026 1820.885, 762.200 1816.273, 754.500 1813.265 C 729.025 1803.312, 694.876 1785.123, 674.500 1770.653 C 654.039 1756.123, 638.206 1740.107, 631.638 1727.294 L 629.994 1724.087 636.747 1726.632 C 684.838 1744.751, 736.696 1757.354, 785 1762.661 C 807.299 1765.110, 853.064 1765.067, 869.500 1762.581 C 932.259 1753.088, 956.317 1719.648, 968.005 1625.662 C 978.868 1538.305, 964.530 1451.949, 926.959 1378.452 C 914.799 1354.664, 898.103 1329.621, 881.004 1309.521 C 871.144 1297.931, 847.115 1274.644, 835.508 1265.431 C 795.190 1233.428, 746.769 1211.067, 694.798 1200.452 C 670.230 1195.434, 654.486 1193.898, 621.450 1193.300 C 587.322 1192.681, 569.055 1193.443, 508.500 1198.010 C 487.050 1199.628, 461.625 1201.519, 452 1202.213 C 428.991 1203.871, 315.260 1203.826, 286.500 1202.148 C 187.976 1196.397, 122.600 1181.526, 61 1150.851 C 41.477 1141.130, 26.333 1132.244, 11.687 1121.918 C 6.290 1118.113, 1.677 1115, 1.437 1115 C 1.197 1115, 1 1121.028, 1 1128.395" stroke="none" fill="#e42c2c" fill-rule="evenodd"/></svg>